<mxfile host="app.diagrams.net" modified="2024-05-17T16:13:47.005Z" agent="Mozilla/5.0 (Windows NT 10.0; Win64; x64) AppleWebKit/537.36 (KHTML, like Gecko) Chrome/125.0.0.0 Safari/537.36" version="24.4.4" etag="E_TwO6z9jDPHG0KQE8Ff" type="github">
  <diagram name="Page-1" id="F01rsRHOHdTHUeIcCFMA">
    <mxGraphModel>
      <root>
        <mxCell id="0" />
        <mxCell id="1" parent="0" />
      </root>
    </mxGraphModel>
  </diagram>
</mxfile>
